HIERARCHY
ROOT Hips
{
	OFFSET 0.000000 0.000000 0.000000
	CHANNELS 6 Xposition Yposition Zposition Xrotation Yrotation Zrotation
	JOINT LeftUpLeg_virtual
	{
		OFFSET 0.000000 0.000000 0.000000
		CHANNELS 3 Xrotation Yrotation Zrotation
		JOINT LeftUpLeg
		{
			OFFSET 15.427100 -6.655098 0.678600
			CHANNELS 3 Xrotation Yrotation Zrotation
			JOINT LeftLeg
			{
				OFFSET 4.081073 -39.591068 13.024000
				CHANNELS 3 Xrotation Yrotation Zrotation
				JOINT LeftFoot
				{
					OFFSET -4.081074 -37.707932 -15.979700
					CHANNELS 3 Xrotation Yrotation Zrotation
					JOINT LeftToeBase
					{
						OFFSET 5.346399 -15.068900 20.645000
						CHANNELS 3 Xrotation Yrotation Zrotation
						JOINT LeftToe_End
						{
							OFFSET 2.754700 0.931300 11.300900
							CHANNELS 3 Xrotation Yrotation Zrotation
							End Site
							{
								OFFSET 0 0 0
							}
						}
					}
				}
			}
		}
	}
	JOINT RightUpLeg_virtual
	{
		OFFSET 0.000000 0.000000 0.000000
		CHANNELS 3 Xrotation Yrotation Zrotation
		JOINT RightUpLeg
		{
			OFFSET -15.569500 -6.655098 0.678600
			CHANNELS 3 Xrotation Yrotation Zrotation
			JOINT RightLeg
			{
				OFFSET -4.081825 -39.591045 13.023800
				CHANNELS 3 Xrotation Yrotation Zrotation
				JOINT RightFoot
				{
					OFFSET 4.081824 -37.707954 -15.979600
					CHANNELS 3 Xrotation Yrotation Zrotation
					JOINT RightToeBase
					{
						OFFSET -5.346400 -15.068900 20.645000
						CHANNELS 3 Xrotation Yrotation Zrotation
						JOINT RightToe_End
						{
							OFFSET -2.754700 0.931300 11.300900
							CHANNELS 3 Xrotation Yrotation Zrotation
							End Site
							{
								OFFSET 0 0 0
							}
						}
					}
				}
			}
		}
	}
	JOINT Spine_virtual
	{
		OFFSET 0.000000 0.000000 0.000000
		CHANNELS 3 Xrotation Yrotation Zrotation
		JOINT Spine
		{
			OFFSET -0.279200 12.230698 -2.892100
			CHANNELS 3 Xrotation Yrotation Zrotation
			JOINT Spine1
			{
				OFFSET -0.232667 10.192268 -1.242267
				CHANNELS 3 Xrotation Yrotation Zrotation
				JOINT Spine1_split
				{
					OFFSET -0.232667 10.192268 -1.242267
					CHANNELS 3 Xrotation Yrotation Zrotation
					JOINT Spine2
					{
						OFFSET -0.232667 10.192268 -1.242267
						CHANNELS 3 Xrotation Yrotation Zrotation
						JOINT Neck_virtual
						{
							OFFSET 0.000000 0.000000 0.000000
							CHANNELS 3 Xrotation Yrotation Zrotation
							JOINT Neck
							{
								OFFSET -0.418800 17.814194 8.416900
								CHANNELS 3 Xrotation Yrotation Zrotation
								JOINT Head
								{
									OFFSET 0.000000 7.031097 3.806800
									CHANNELS 3 Xrotation Yrotation Zrotation
									JOINT HeadTop_End
									{
										OFFSET 0.000000 24.646606 12.978600
										CHANNELS 3 Xrotation Yrotation Zrotation
										End Site
										{
											OFFSET 0 0 0
										}
									}
								}
							}
						}
						JOINT LeftShoulder_virtual
						{
							OFFSET 0.000000 0.000000 0.000000
							CHANNELS 3 Xrotation Yrotation Zrotation
							JOINT LeftShoulder
							{
								OFFSET 8.476499 7.247704 -3.868750
								CHANNELS 3 Xrotation Yrotation Zrotation
								JOINT LeftShoulder_split
								{
									OFFSET 8.476499 7.247704 -3.868750
									CHANNELS 3 Xrotation Yrotation Zrotation
									JOINT LeftArm
									{
										OFFSET 9.308998 -2.777710 0.208600
										CHANNELS 3 Xrotation Yrotation Zrotation
										JOINT LeftForeArm
										{
											OFFSET 29.972298 0.000000 0.000000
											CHANNELS 3 Xrotation Yrotation Zrotation
											JOINT LeftHand
											{
												OFFSET 26.026505 0.000000 0.000000
												CHANNELS 3 Xrotation Yrotation Zrotation
												End Site
												{
													OFFSET 0 0 0
												}
											}
										}
									}
								}
							}
						}
						JOINT RightShoulder_virtual
						{
							OFFSET 0.000000 0.000000 0.000000
							CHANNELS 3 Xrotation Yrotation Zrotation
							JOINT RightShoulder
							{
								OFFSET -7.570500 7.247704 -3.868750
								CHANNELS 3 Xrotation Yrotation Zrotation
								JOINT RightShoulder_split
								{
									OFFSET -7.570500 7.247704 -3.868750
									CHANNELS 3 Xrotation Yrotation Zrotation
									JOINT RightArm
									{
										OFFSET -9.308998 -2.777710 0.208500
										CHANNELS 3 Xrotation Yrotation Zrotation
										JOINT RightForeArm
										{
											OFFSET -29.972300 0.000000 0.000000
											CHANNELS 3 Xrotation Yrotation Zrotation
											JOINT RightHand
											{
												OFFSET -26.026505 0.000000 0.000000
												CHANNELS 3 Xrotation Yrotation Zrotation
												End Site
												{
													OFFSET 0 0 0
												}
											}
										}
									}
								}
							}
						}
					}
				}
			}
		}
	}
}
MOTION
Frames: 8
Frame Time: 0.03333333
7.358064 82.205910 -0.694862 0.000000 0.000000 0.000000 5.989971 -14.291477 -1.648257 -32.767027 3.006438 15.826090 46.654434 10.238320 -1.072697 -15.613551 5.836667 -12.367834 -2.194719 -2.219981 -2.788801 0.000000 0.000000 0.000000 5.472014 -11.404584 -0.931682 -18.346742 -6.097421 -17.403783 43.866398 -8.098974 -6.366912 -15.545905 -0.362189 14.725811 -17.357135 -4.715639 8.184096 0.000000 0.000000 0.000000 6.292246 -9.345478 -0.249485 13.021774 2.564228 -2.255786 8.200957 6.421141 -2.532060 0.098180 -1.489722 1.015468 0.000000 0.000000 0.000000 -1.729665 6.034976 -0.753672 -5.563499 0.929582 0.028297 -7.957663 8.106052 6.072179 0.000000 0.000000 0.000000 -3.305704 6.039568 -0.837217 -2.283348 0.513606 -2.971799 1.275871 -1.305481 1.125588 -13.552690 1.421603 -55.195250 -12.846800 -31.993183 -5.114299 0.000000 0.000000 0.000000 -3.844524 5.289879 -0.869285 5.303125 -9.426009 9.635521 1.360969 -2.426846 -3.005768 24.938846 58.099966 23.193979 16.193617 29.399788 5.053359 0.000000 0.000000 0.000000 
7.303915 83.144226 -0.747250 0.000000 0.000000 0.000000 6.321150 -14.199202 -2.154089 -32.141398 2.624486 16.160998 44.133599 10.227229 -0.677539 -14.348680 5.394511 -12.008292 -2.283543 -2.260367 -3.039678 0.000000 0.000000 0.000000 5.592535 -11.664444 -1.519240 -18.231803 -6.366994 -15.677881 40.232553 -5.731604 -5.764447 -15.345989 1.015654 15.024222 -14.861416 -3.428651 6.140457 0.000000 0.000000 0.000000 6.492767 -9.220656 -0.606682 13.112484 2.793488 -1.924378 7.823699 6.459303 -2.408735 -0.019178 -1.708123 0.930001 0.000000 0.000000 0.000000 -2.067742 5.979406 -0.541772 -5.760745 0.961458 -0.123306 -7.577281 7.606365 6.665486 0.000000 0.000000 0.000000 -3.680173 6.004587 -0.799178 -2.254714 1.244278 -3.311570 1.444500 -1.495007 1.337173 -13.483037 1.765189 -55.257931 -12.040759 -30.798788 -4.347951 0.000000 0.000000 0.000000 -4.157411 5.302584 -0.727424 4.842796 -8.045840 9.325855 1.051018 -2.401691 -3.597846 17.111354 54.472511 29.378061 15.195776 26.468054 6.853449 0.000000 0.000000 0.000000 
7.273359 84.113358 -0.757133 0.000000 0.000000 0.000000 6.447286 -14.266569 -2.606056 -31.404257 2.413448 16.457476 41.929684 10.111503 -0.413057 -13.277773 5.026500 -11.403791 -2.213939 -2.310597 -3.236999 0.000000 0.000000 0.000000 5.553773 -11.931546 -2.069610 -17.266481 -6.257406 -14.008759 35.771357 -4.087033 -5.265833 -15.403210 1.260951 15.027991 -12.097731 -2.486365 4.762499 0.000000 0.000000 0.000000 6.461420 -9.212058 -0.971519 13.207040 3.023355 -1.533993 7.430302 6.467922 -2.327992 0.036773 -1.987567 0.885531 0.000000 0.000000 0.000000 -2.463837 5.905720 -0.398827 -5.940534 1.021566 -0.260095 -7.065560 6.964619 7.360305 0.000000 0.000000 0.000000 -4.051044 5.941360 -0.819667 -2.199917 1.950075 -3.617543 1.501685 -1.657518 1.383247 -13.387628 2.272918 -55.418232 -11.262670 -29.578305 -3.615362 0.000000 0.000000 0.000000 -4.468830 5.299531 -0.648938 4.280459 -6.785638 8.849131 0.605904 -2.291469 -3.716228 10.929722 49.753055 35.383139 15.214880 24.275647 7.040380 0.000000 0.000000 0.000000 
7.293436 84.981537 -0.716873 0.000000 0.000000 0.000000 6.314051 -14.352850 -2.985309 -30.567395 2.423228 16.571536 40.182344 9.953472 -0.270597 -12.586902 4.905610 -10.653561 -2.012134 -2.334713 -3.360294 0.000000 0.000000 0.000000 5.336946 -12.003374 -2.555285 -15.807708 -5.702610 -12.523630 31.210235 -3.039783 -4.995737 -15.732458 0.662958 14.838448 -9.376778 -1.913050 4.185977 0.000000 0.000000 0.000000 6.109703 -9.272968 -1.297183 13.313284 3.173026 -1.151055 7.048998 6.442789 -2.247664 0.243643 -2.167698 0.900106 0.000000 0.000000 0.000000 -2.904828 5.814962 -0.288787 -6.024449 1.071623 -0.436860 -6.489420 6.186807 8.148420 0.000000 0.000000 0.000000 -4.415232 5.853584 -0.839669 -2.129163 2.574180 -3.817672 1.441229 -1.905204 1.408122 -13.236115 2.733081 -55.671024 -10.535292 -28.465517 -2.924729 0.000000 0.000000 0.000000 -4.774832 5.281518 -0.576343 3.668656 -5.647285 8.363839 0.081424 -2.321830 -3.457502 6.665874 44.580313 40.950891 15.815209 22.720556 6.080512 0.000000 0.000000 0.000000 
7.328171 85.733780 -0.612877 0.000000 0.000000 0.000000 5.977564 -14.294153 -3.231762 -29.607579 2.631099 16.477753 38.760425 9.770436 -0.212999 -12.212673 5.018788 -10.021595 -1.964694 -2.319374 -3.345740 0.000000 0.000000 0.000000 4.994446 -11.791779 -2.891450 -14.253496 -4.842817 -11.432413 27.362423 -2.435205 -4.970789 -16.208664 -0.337642 14.616035 -7.042045 -1.590228 4.236342 0.000000 0.000000 0.000000 5.491748 -9.409466 -1.567632 13.409758 3.184583 -0.844759 6.702065 6.389450 -2.137180 0.475405 -2.207915 0.947675 0.000000 0.000000 0.000000 -3.362135 5.712024 -0.175723 -5.954592 1.112148 -0.721541 -5.898034 5.281743 9.002238 0.000000 0.000000 0.000000 -4.773527 5.748877 -0.809235 -2.051777 3.072679 -3.871550 1.424628 -2.174146 1.460767 -13.116129 2.990847 -56.010758 -9.884260 -27.534774 -2.265991 0.000000 0.000000 0.000000 -5.066688 5.243921 -0.477119 3.039977 -4.651144 7.969062 -0.305708 -2.364061 -3.169683 4.226034 39.656826 45.810328 16.538825 21.802353 4.535771 0.000000 0.000000 0.000000 
7.302231 86.382401 -0.600670 0.000000 0.000000 0.000000 5.517139 -14.107653 -3.310405 -28.509966 2.959127 16.136918 37.594201 9.512871 -0.192460 -11.900747 5.266047 -9.656106 -2.222303 -2.275061 -3.219175 0.000000 0.000000 0.000000 4.584097 -11.261438 -3.053729 -13.070495 -3.953048 -10.883857 24.633622 -2.015791 -5.109019 -16.429935 -1.278646 14.584050 -5.441020 -1.403435 4.581728 0.000000 0.000000 0.000000 4.773783 -9.488798 -1.748176 13.437964 3.065448 -0.643403 6.385695 6.321648 -1.984640 0.527961 -2.053201 0.949861 0.000000 0.000000 0.000000 -3.801987 5.599491 -0.040448 -5.697990 1.141044 -1.151666 -5.298638 4.323254 9.863844 0.000000 0.000000 0.000000 -5.130593 5.635456 -0.708508 -1.971429 3.437469 -3.801933 1.433645 -2.473821 1.561648 -13.065160 3.030972 -56.412417 -9.352548 -26.867446 -1.673986 0.000000 0.000000 0.000000 -5.339441 5.189485 -0.333045 2.425304 -3.799472 7.638881 -0.534719 -2.677561 -2.985410 3.141475 35.351679 50.054095 16.985019 21.414019 2.852151 0.000000 0.000000 0.000000 
7.189342 86.956909 -0.505962 0.000000 0.000000 0.000000 5.045488 -13.862796 -3.215025 -27.333087 3.404238 15.599677 36.466793 9.182413 -0.171746 -11.455236 5.541940 -9.522260 -2.544804 -2.234742 -3.055781 0.000000 0.000000 0.000000 4.129763 -10.582237 -3.036654 -12.407686 -3.470399 -10.897057 23.191482 -1.700979 -5.207236 -15.980160 -1.887648 15.008391 -4.920489 -1.249600 4.868482 0.000000 0.000000 0.000000 4.047734 -9.426161 -1.797464 13.372348 2.836459 -0.551161 6.097835 6.243430 -1.807015 0.446586 -1.794204 0.897387 0.000000 0.000000 0.000000 -4.210929 5.483252 0.103746 -5.253902 1.174891 -1.759154 -4.638707 3.349903 10.671610 0.000000 0.000000 0.000000 -5.493703 5.521879 -0.560701 -1.892466 3.670053 -3.681968 1.555963 -2.716016 1.640921 -13.078012 2.864249 -56.893611 -8.956349 -26.426328 -1.188482 0.000000 0.000000 0.000000 -5.585186 5.123797 -0.156976 1.849319 -3.095558 7.330890 -0.686159 -3.264303 -3.032629 3.005790 31.779829 53.597317 16.823103 21.553572 1.393947 0.000000 0.000000 0.000000 
6.990950 87.507690 -0.392601 0.000000 0.000000 0.000000 4.661761 -13.645169 -2.964349 -26.096082 3.907833 15.000251 35.219973 8.832521 -0.155254 -10.889437 5.829782 -9.483183 -2.567887 -2.217386 -2.966196 0.000000 0.000000 0.000000 3.685876 -10.036437 -2.850590 -12.212674 -3.576868 -11.276330 22.556292 -1.519254 -5.204688 -15.014168 -2.119799 15.659368 -5.274934 -1.062529 4.902182 0.000000 0.000000 0.000000 3.472009 -9.258123 -1.733447 13.193264 2.552871 -0.551875 5.825352 6.163918 -1.626542 0.248437 -1.591939 0.765189 0.000000 0.000000 0.000000 -4.590171 5.378380 0.243216 -4.693586 1.247534 -2.533783 -3.921413 2.398000 11.398655 0.000000 0.000000 0.000000 -5.858808 5.415856 -0.397987 -1.817004 3.814579 -3.610643 1.715643 -2.881095 1.600860 -13.060701 2.641951 -57.475659 -8.717922 -26.093857 -0.827416 0.000000 0.000000 0.000000 -5.819097 5.053290 0.025419 1.327959 -2.514057 7.041786 -0.996202 -3.962194 -3.035861 3.535159 28.753351 56.561544 15.918357 21.957899 0.395354 0.000000 0.000000 0.000000 
